<svg xmlns="http://www.w3.org/2000/svg" width="655" height="673" viewBox="0 0 655 673"><g id="Gruppe_7" data-name="Gruppe 7" transform="translate(1 -7)"><circle id="Ellipse_41" cx="2" cy="2" r="2" fill="#1b365c" data-name="Ellipse 41" transform="translate(81 22)"/><circle id="Ellipse_613" cx="2" cy="2" r="2" fill="#1b365c" data-name="Ellipse 613" transform="translate(81 472)"/><circle id="Ellipse_56" cx="2" cy="2" r="2" fill="#1b365c" data-name="Ellipse 56" transform="translate(112 22)"/><circle id="Ellipse_614" cx="2" cy="2" r="2" fill="#1b365c" data-name="Ellipse 614" transform="translate(112 472)"/><circle id="Ellipse_90" cx="2" cy="2" r="2" fill="#718095" data-name="Ellipse 90" transform="translate(183 22)"/><circle id="Ellipse_615" cx="2" cy="2" r="2" fill="#718095" data-name="Ellipse 615" transform="translate(183 472)"/><circle id="Ellipse_57" cx="2" cy="2" r="2" fill="#1b365c" data-name="Ellipse 57" transform="translate(112 8)"/><circle id="Ellipse_618" cx="2" cy="2" r="2" fill="#1b365c" data-name="Ellipse 618" transform="translate(112 458)"/><circle id="Ellipse_96" cx="2" cy="2" r="2" fill="#1b365c" data-name="Ellipse 96" transform="translate(251 8)"/><circle id="Ellipse_619" cx="2" cy="2" r="2" fill="#1b365c" data-name="Ellipse 619" transform="translate(251 458)"/><ellipse id="Ellipse_98" cx="2" cy="2.5" fill="#1b365c" data-name="Ellipse 98" rx="2" ry="2.5" transform="translate(319 24)"/><ellipse id="Ellipse_612" cx="2" cy="2.5" fill="#1b365c" data-name="Ellipse 612" rx="2" ry="2.5" transform="translate(319 474)"/><circle id="Ellipse_97" cx="2" cy="2" r="2" fill="#7fe4f6" data-name="Ellipse 97" transform="translate(268 8)"/><circle id="Ellipse_620" cx="2" cy="2" r="2" fill="#7fe4f6" data-name="Ellipse 620" transform="translate(268 458)"/><circle id="Ellipse_42" cx="2" cy="2" r="2" fill="#1b365c" data-name="Ellipse 42" transform="translate(81 39)"/><circle id="Ellipse_603" cx="2" cy="2" r="2" fill="#1b365c" data-name="Ellipse 603" transform="translate(81 489)"/><circle id="Ellipse_53" cx="2" cy="2" r="2" fill="#1b365c" data-name="Ellipse 53" transform="translate(99 39)"/><circle id="Ellipse_604" cx="2" cy="2" r="2" fill="#1b365c" data-name="Ellipse 604" transform="translate(99 489)"/><circle id="Ellipse_58" cx="2" cy="2" r="2" fill="#1b365c" data-name="Ellipse 58" transform="translate(99 8)"/><circle id="Ellipse_621" cx="2" cy="2" r="2" fill="#1b365c" data-name="Ellipse 621" transform="translate(99 458)"/><circle id="Ellipse_55" cx="2" cy="2" r="2" fill="#1b365c" data-name="Ellipse 55" transform="translate(112 39)"/><circle id="Ellipse_605" cx="2" cy="2" r="2" fill="#1b365c" data-name="Ellipse 605" transform="translate(112 489)"/><circle id="Ellipse_88" cx="2" cy="2" r="2" fill="#1b365c" data-name="Ellipse 88" transform="translate(170 39)"/><circle id="Ellipse_606" cx="2" cy="2" r="2" fill="#1b365c" data-name="Ellipse 606" transform="translate(170 489)"/><circle id="Ellipse_106" cx="2" cy="2" r="2" fill="#1b355d" data-name="Ellipse 106" transform="translate(407 39)"/><circle id="Ellipse_607" cx="2" cy="2" r="2" fill="#1b355d" data-name="Ellipse 607" transform="translate(407 489)"/><circle id="Ellipse_107" cx="2" cy="2" r="2" fill="#1b355d" data-name="Ellipse 107" transform="translate(424 39)"/><circle id="Ellipse_608" cx="2" cy="2" r="2" fill="#1b355d" data-name="Ellipse 608" transform="translate(424 489)"/><circle id="Ellipse_108" cx="2" cy="2" r="2" fill="#1b355d" data-name="Ellipse 108" transform="translate(424 22)"/><circle id="Ellipse_616" cx="2" cy="2" r="2" fill="#1b355d" data-name="Ellipse 616" transform="translate(424 472)"/><circle id="Ellipse_109" cx="2" cy="2" r="2" fill="#718095" data-name="Ellipse 109" transform="translate(442 22)"/><circle id="Ellipse_617" cx="2" cy="2" r="2" fill="#718095" data-name="Ellipse 617" transform="translate(442 472)"/><circle id="Ellipse_110" cx="2" cy="2" r="2" fill="#bec7d2" data-name="Ellipse 110" transform="translate(442 39)"/><circle id="Ellipse_609" cx="2" cy="2" r="2" fill="#bec7d2" data-name="Ellipse 609" transform="translate(442 489)"/><circle id="Ellipse_89" cx="2" cy="2" r="2" fill="#7fe4f6" data-name="Ellipse 89" transform="translate(187 39)"/><circle id="Ellipse_610" cx="2" cy="2" r="2" fill="#7fe4f6" data-name="Ellipse 610" transform="translate(187 489)"/><circle id="Ellipse_43" cx="2" cy="2" r="2" fill="#1b365c" data-name="Ellipse 43" transform="translate(81 57)"/><circle id="Ellipse_598" cx="2" cy="2" r="2" fill="#1b365c" data-name="Ellipse 598" transform="translate(81 507)"/><circle id="Ellipse_93" cx="2" cy="2" r="2" fill="#1b365c" data-name="Ellipse 93" transform="translate(286 57)"/><circle id="Ellipse_599" cx="2" cy="2" r="2" fill="#1b365c" data-name="Ellipse 599" transform="translate(286 507)"/><circle id="Ellipse_100" cx="2" cy="2" r="2" fill="#1b365c" data-name="Ellipse 100" transform="translate(284 107)"/><circle id="Ellipse_542" cx="2" cy="2" r="2" fill="#1b365c" data-name="Ellipse 542" transform="translate(284 557)"/><circle id="Ellipse_54" cx="2" cy="2" r="2" fill="#1b365c" data-name="Ellipse 54" transform="translate(99 57)"/><circle id="Ellipse_600" cx="2" cy="2" r="2" fill="#1b365c" data-name="Ellipse 600" transform="translate(99 507)"/><circle id="Ellipse_92" cx="2" cy="2" r="2" fill="#1b365c" data-name="Ellipse 92" transform="translate(268 57)"/><circle id="Ellipse_601" cx="2" cy="2" r="2" fill="#1b365c" data-name="Ellipse 601" transform="translate(268 507)"/><circle id="Ellipse_95" cx="2" cy="2" r="2" fill="#11c7e6" data-name="Ellipse 95" transform="translate(268 74)"/><circle id="Ellipse_573" cx="2" cy="2" r="2" fill="#11c7e6" data-name="Ellipse 573" transform="translate(268 524)"/><circle id="Ellipse_91" cx="2" cy="2" r="2" fill="#718095" data-name="Ellipse 91" transform="translate(251 57)"/><circle id="Ellipse_602" cx="2" cy="2" r="2" fill="#718095" data-name="Ellipse 602" transform="translate(251 507)"/><g id="Komponente_1_1" data-name="Komponente 1 – 1" transform="translate(251 74)"><circle id="Ellipse_94" cx="2" cy="2" r="2" fill="#1b355d" data-name="Ellipse 94"/></g><g id="Komponente_1_2" data-name="Komponente 1 – 2" transform="translate(251 524)"><circle id="Ellipse_94-2" cx="2" cy="2" r="2" fill="#1b355d" data-name="Ellipse 94"/></g><circle id="Ellipse_46" cx="2" cy="2" r="2" fill="#1b365c" data-name="Ellipse 46" transform="translate(81 107)"/><circle id="Ellipse_543" cx="2" cy="2" r="2" fill="#1b365c" data-name="Ellipse 543" transform="translate(81 557)"/><circle id="Ellipse_47" cx="2" cy="2" r="2" fill="#1b365c" data-name="Ellipse 47" transform="translate(81 124)"/><circle id="Ellipse_519" cx="2" cy="2" r="2" fill="#1b365c" data-name="Ellipse 519" transform="translate(81 574)"/><circle id="Ellipse_60" cx="2" cy="2" r="2" fill="#1b365c" data-name="Ellipse 60" transform="translate(64 124)"/><circle id="Ellipse_525" cx="2" cy="2" r="2" fill="#1b365c" data-name="Ellipse 525" transform="translate(64 574)"/><circle id="Ellipse_61" cx="2" cy="2" r="2" fill="#1b365c" data-name="Ellipse 61" transform="translate(46 124)"/><circle id="Ellipse_563" cx="2" cy="2" r="2" fill="#1b365c" data-name="Ellipse 563" transform="translate(46 574)"/><circle id="Ellipse_62" cx="2" cy="2" r="2" fill="#1b365c" data-name="Ellipse 62" transform="translate(46 73)"/><circle id="Ellipse_574" cx="2" cy="2" r="2" fill="#1b365c" data-name="Ellipse 574" transform="translate(46 523)"/><circle id="Ellipse_63" cx="2" cy="2" r="2" fill="#1b365c" data-name="Ellipse 63" transform="translate(29 73)"/><circle id="Ellipse_611" cx="2" cy="2" r="2" fill="#1b365c" data-name="Ellipse 611" transform="translate(29 523)"/><circle id="Ellipse_64" cx="2" cy="2" r="2" fill="#1b365c" data-name="Ellipse 64" transform="translate(11 73)"/><circle id="Ellipse_630" cx="2" cy="2" r="2" fill="#1b365c" data-name="Ellipse 630" transform="translate(11 523)"/><circle id="Ellipse_44" cx="2" cy="2" r="2" fill="#97a4b5" data-name="Ellipse 44" transform="translate(81 74)"/><circle id="Ellipse_575" cx="2" cy="2" r="2" fill="#97a4b5" data-name="Ellipse 575" transform="translate(81 524)"/><circle id="Ellipse_50" cx="2" cy="2" r="2" fill="#11c7e6" data-name="Ellipse 50" transform="translate(101 74)"/><circle id="Ellipse_576" cx="2" cy="2" r="2" fill="#11c7e6" data-name="Ellipse 576" transform="translate(101 524)"/><circle id="Ellipse_45" cx="2" cy="2" r="2" fill="#718095" data-name="Ellipse 45" transform="translate(81 89)"/><circle id="Ellipse_548" cx="2" cy="2" r="2" fill="#718095" data-name="Ellipse 548" transform="translate(81 539)"/><circle id="Ellipse_51" cx="2" cy="2" r="2" fill="#1b355d" data-name="Ellipse 51" transform="translate(100 89)"/><circle id="Ellipse_549" cx="2" cy="2" r="2" fill="#1b355d" data-name="Ellipse 549" transform="translate(100 539)"/><circle id="Ellipse_65" cx="2" cy="2" r="2" fill="#97a4b5" data-name="Ellipse 65" transform="translate(46 124)"/><circle id="Ellipse_564" cx="2" cy="2" r="2" fill="#97a4b5" data-name="Ellipse 564" transform="translate(46 574)"/><circle id="Ellipse_66" cx="2" cy="2" r="2" fill="#1b365c" data-name="Ellipse 66" transform="translate(46 142)"/><circle id="Ellipse_565" cx="2" cy="2" r="2" fill="#1b365c" data-name="Ellipse 565" transform="translate(46 592)"/><circle id="Ellipse_67" cx="2" cy="2" r="2" fill="#1b365c" data-name="Ellipse 67" transform="translate(46 159)"/><circle id="Ellipse_566" cx="2" cy="2" r="2" fill="#1b365c" data-name="Ellipse 566" transform="translate(46 609)"/><ellipse id="Ellipse_76" cx="2.5" cy="2" fill="#1b365c" data-name="Ellipse 76" rx="2.5" ry="2" transform="translate(16 159)"/><ellipse id="Ellipse_623" cx="2.5" cy="2" fill="#1b365c" data-name="Ellipse 623" rx="2.5" ry="2" transform="translate(16 609)"/><circle id="Ellipse_77" cx="2" cy="2" r="2" fill="#1b365c" data-name="Ellipse 77" transform="translate(-1 144)"/><circle id="Ellipse_631" cx="2" cy="2" r="2" fill="#1b365c" data-name="Ellipse 631" transform="translate(-1 594)"/><circle id="Ellipse_68" cx="2" cy="2" r="2" fill="#1b365c" data-name="Ellipse 68" transform="translate(46 209)"/><circle id="Ellipse_567" cx="2" cy="2" r="2" fill="#1b365c" data-name="Ellipse 567" transform="translate(46 659)"/><circle id="Ellipse_83" cx="2" cy="2" r="2" fill="#1b365c" data-name="Ellipse 83" transform="translate(46 257)"/><ellipse id="Ellipse_73" cx="2.5" cy="2" fill="#1b365c" data-name="Ellipse 73" rx="2.5" ry="2" transform="translate(16 209)"/><ellipse id="Ellipse_624" cx="2.5" cy="2" fill="#1b365c" data-name="Ellipse 624" rx="2.5" ry="2" transform="translate(16 659)"/><circle id="Ellipse_81" cx="2" cy="2" r="2" fill="#1b365c" data-name="Ellipse 81" transform="translate(-1 194)"/><circle id="Ellipse_632" cx="2" cy="2" r="2" fill="#1b365c" data-name="Ellipse 632" transform="translate(-1 644)"/><circle id="Ellipse_69" cx="2" cy="2" r="2" fill="#1b365c" data-name="Ellipse 69" transform="translate(46 226)"/><circle id="Ellipse_82" cx="2" cy="2" r="2" fill="#1b365c" data-name="Ellipse 82" transform="translate(46 275)"/><ellipse id="Ellipse_72" cx="2.5" cy="2" fill="#1b365c" data-name="Ellipse 72" rx="2.5" ry="2" transform="translate(16 142)"/><ellipse id="Ellipse_625" cx="2.5" cy="2" fill="#1b365c" data-name="Ellipse 625" rx="2.5" ry="2" transform="translate(16 592)"/><circle id="Ellipse_70" cx="2" cy="2" r="2" fill="#97a4b5" data-name="Ellipse 70" transform="translate(46 177)"/><circle id="Ellipse_571" cx="2" cy="2" r="2" fill="#97a4b5" data-name="Ellipse 571" transform="translate(46 627)"/><ellipse id="Ellipse_75" cx="2.5" cy="2" fill="#97a4b5" data-name="Ellipse 75" rx="2.5" ry="2" transform="translate(16 177)"/><ellipse id="Ellipse_626" cx="2.5" cy="2" fill="#97a4b5" data-name="Ellipse 626" rx="2.5" ry="2" transform="translate(16 627)"/><circle id="Ellipse_79" cx="2" cy="2" r="2" fill="#97a4b5" data-name="Ellipse 79" transform="translate(-1 162)"/><circle id="Ellipse_633" cx="2" cy="2" r="2" fill="#97a4b5" data-name="Ellipse 633" transform="translate(-1 612)"/><circle id="Ellipse_71" cx="2" cy="2" r="2" fill="#718095" data-name="Ellipse 71" transform="translate(46 191)"/><circle id="Ellipse_572" cx="2" cy="2" r="2" fill="#718095" data-name="Ellipse 572" transform="translate(46 641)"/><ellipse id="Ellipse_74" cx="2.5" cy="2" fill="#718095" data-name="Ellipse 74" rx="2.5" ry="2" transform="translate(16 191)"/><ellipse id="Ellipse_627" cx="2.5" cy="2" fill="#718095" data-name="Ellipse 627" rx="2.5" ry="2" transform="translate(16 641)"/><circle id="Ellipse_80" cx="2" cy="2" r="2" fill="#718095" data-name="Ellipse 80" transform="translate(-1 177)"/><circle id="Ellipse_634" cx="2" cy="2" r="2" fill="#718095" data-name="Ellipse 634" transform="translate(-1 627)"/><ellipse id="Ellipse_86" cx="2.5" cy="2" fill="#bec7d2" data-name="Ellipse 86" rx="2.5" ry="2" transform="translate(16 257)"/><ellipse id="Ellipse_87" cx="2.5" cy="2" fill="#1b365c" data-name="Ellipse 87" rx="2.5" ry="2" transform="translate(16 275)"/><circle id="Ellipse_99" cx="2" cy="2" r="2" fill="#1b365c" data-name="Ellipse 99" transform="translate(319 7)"/><circle id="Ellipse_622" cx="2" cy="2" r="2" fill="#1b365c" data-name="Ellipse 622" transform="translate(319 457)"/><circle id="Ellipse_101" cx="2" cy="2" r="2" fill="#1b365c" data-name="Ellipse 101" transform="translate(302 107)"/><circle id="Ellipse_544" cx="2" cy="2" r="2" fill="#1b365c" data-name="Ellipse 544" transform="translate(302 557)"/><circle id="Ellipse_102" cx="2" cy="2" r="2" fill="#1b365c" data-name="Ellipse 102" transform="translate(319 107)"/><circle id="Ellipse_545" cx="2" cy="2" r="2" fill="#1b365c" data-name="Ellipse 545" transform="translate(319 557)"/><circle id="Ellipse_105" cx="2" cy="2" r="2" fill="#7fe4f6" data-name="Ellipse 105" transform="translate(372 107)"/><circle id="Ellipse_546" cx="2" cy="2" r="2" fill="#7fe4f6" data-name="Ellipse 546" transform="translate(372 557)"/><circle id="Ellipse_103" cx="2" cy="2" r="2" fill="#718095" data-name="Ellipse 103" transform="translate(372 93)"/><circle id="Ellipse_547" cx="2" cy="2" r="2" fill="#718095" data-name="Ellipse 547" transform="translate(372 543)"/><circle id="Ellipse_104" cx="2" cy="2" r="2" fill="#718095" data-name="Ellipse 104" transform="translate(372 76)"/><circle id="Ellipse_577" cx="2" cy="2" r="2" fill="#718095" data-name="Ellipse 577" transform="translate(372 526)"/><circle id="Ellipse_111" cx="2" cy="2" r="2" fill="#1b365c" data-name="Ellipse 111" transform="translate(354 370)"/><circle id="Ellipse_212" cx="2" cy="2" r="2" fill="#1b365c" data-name="Ellipse 212" transform="translate(221 222) rotate(90)"/><circle id="Ellipse_124" cx="2" cy="2" r="2" fill="#1b365c" data-name="Ellipse 124" transform="translate(403 370)"/><circle id="Ellipse_213" cx="2" cy="2" r="2" fill="#1b365c" data-name="Ellipse 213" transform="translate(221 271) rotate(90)"/><circle id="Ellipse_112" cx="2" cy="2" r="2" fill="#1b365c" data-name="Ellipse 112" transform="translate(318 351)"/><circle id="Ellipse_125" cx="2" cy="2" r="2" fill="#1b365c" data-name="Ellipse 125" transform="translate(434 370)"/><circle id="Ellipse_214" cx="2" cy="2" r="2" fill="#1b365c" data-name="Ellipse 214" transform="translate(221 302) rotate(90)"/><circle id="Ellipse_113" cx="2" cy="2" r="2" fill="#1b365c" data-name="Ellipse 113" transform="translate(318 338)"/><circle id="Ellipse_126" cx="2" cy="2" r="2" fill="#1b365c" data-name="Ellipse 126" transform="translate(434 357)"/><circle id="Ellipse_215" cx="2" cy="2" r="2" fill="#1b365c" data-name="Ellipse 215" transform="translate(234 302) rotate(90)"/><circle id="Ellipse_114" cx="2" cy="2" r="2" fill="#1b365c" data-name="Ellipse 114" transform="translate(354 388)"/><ellipse id="Ellipse_216" cx="2" cy="2.5" fill="#1b365c" data-name="Ellipse 216" rx="2" ry="2.5" transform="translate(204 222) rotate(90)"/><circle id="Ellipse_127" cx="2" cy="2" r="2" fill="#1b365c" data-name="Ellipse 127" transform="translate(403 388)"/><ellipse id="Ellipse_204" cx="2" cy="2.5" fill="#1b365c" data-name="Ellipse 204" rx="2" ry="2.5" transform="translate(204 271) rotate(90)"/><circle id="Ellipse_175" cx="2" cy="2" r="2" fill="#1b365c" data-name="Ellipse 175" transform="translate(66 388)"/><circle id="Ellipse_115" cx="2" cy="2" r="2" fill="#1b365c" data-name="Ellipse 115" transform="translate(372 388)"/><ellipse id="Ellipse_205" cx="2" cy="2.5" fill="#1b365c" data-name="Ellipse 205" rx="2" ry="2.5" transform="translate(204 240) rotate(90)"/><circle id="Ellipse_128" cx="2" cy="2" r="2" fill="#1b365c" data-name="Ellipse 128" transform="translate(420 388)"/><circle id="Ellipse_176" cx="2" cy="2" r="2" fill="#1b365c" data-name="Ellipse 176" transform="translate(84 388)"/><circle id="Ellipse_116" cx="2" cy="2" r="2" fill="#1b365c" data-name="Ellipse 116" transform="translate(354 353)"/><ellipse id="Ellipse_217" cx="2" cy="2.5" fill="#1b365c" data-name="Ellipse 217" rx="2" ry="2.5" transform="translate(239 222) rotate(90)"/><circle id="Ellipse_150" cx="2" cy="2" r="2" fill="#11c7e6" data-name="Ellipse 150" transform="translate(354 335)"/><circle id="Ellipse_218" cx="2" cy="2" r="2" fill="#11c7e6" data-name="Ellipse 218" transform="translate(256 222) rotate(90)"/><circle id="Ellipse_129" cx="2" cy="2" r="2" fill="#1b365c" data-name="Ellipse 129" transform="translate(420 357)"/><circle id="Ellipse_219" cx="2" cy="2" r="2" fill="#1b365c" data-name="Ellipse 219" transform="translate(234 288) rotate(90)"/><circle id="Ellipse_117" cx="2" cy="2" r="2" fill="#1b365c" data-name="Ellipse 117" transform="translate(385 388)"/><ellipse id="Ellipse_207" cx="2" cy="2.5" fill="#1b365c" data-name="Ellipse 207" rx="2" ry="2.5" transform="translate(204 253) rotate(90)"/><circle id="Ellipse_178" cx="2" cy="2" r="2" fill="#1b365c" data-name="Ellipse 178" transform="translate(49 388)"/><circle id="Ellipse_130" cx="2" cy="2" r="2" fill="#1b365c" data-name="Ellipse 130" transform="translate(434 388)"/><ellipse id="Ellipse_208" cx="2" cy="2.5" fill="#1b365c" data-name="Ellipse 208" rx="2" ry="2.5" transform="translate(204 302) rotate(90)"/><circle id="Ellipse_177" cx="2" cy="2" r="2" fill="#1b365c" data-name="Ellipse 177" transform="translate(97 388)"/><circle id="Ellipse_118" cx="2" cy="2" r="2" fill="#1b365c" data-name="Ellipse 118" transform="translate(354 405)"/><circle id="Ellipse_220" cx="2" cy="2" r="2" fill="#1b365c" data-name="Ellipse 220" transform="translate(186 222) rotate(90)"/><circle id="Ellipse_131" cx="2" cy="2" r="2" fill="#1b365c" data-name="Ellipse 131" transform="translate(403 405)"/><circle id="Ellipse_200" cx="2" cy="2" r="2" fill="#1b365c" data-name="Ellipse 200" transform="translate(186 271) rotate(90)"/><circle id="Ellipse_173" cx="2" cy="2" r="2" fill="#1b365c" data-name="Ellipse 173" transform="translate(66 405)"/><circle id="Ellipse_119" cx="2" cy="2" r="2" fill="#1b365c" data-name="Ellipse 119" transform="translate(372 405)"/><circle id="Ellipse_209" cx="2" cy="2" r="2" fill="#1b365c" data-name="Ellipse 209" transform="translate(186 240) rotate(90)"/><circle id="Ellipse_132" cx="2" cy="2" r="2" fill="#1b365c" data-name="Ellipse 132" transform="translate(420 405)"/><circle id="Ellipse_174" cx="2" cy="2" r="2" fill="#1b365c" data-name="Ellipse 174" transform="translate(84 405)"/><circle id="Ellipse_120" cx="2" cy="2" r="2" fill="#97a4b5" data-name="Ellipse 120" transform="translate(354 423)"/><circle id="Ellipse_221" cx="2" cy="2" r="2" fill="#97a4b5" data-name="Ellipse 221" transform="translate(169 222) rotate(90)"/><circle id="Ellipse_133" cx="2" cy="2" r="2" fill="#97a4b5" data-name="Ellipse 133" transform="translate(403 423)"/><circle id="Ellipse_202" cx="2" cy="2" r="2" fill="#97a4b5" data-name="Ellipse 202" transform="translate(169 271) rotate(90)"/><circle id="Ellipse_171" cx="2" cy="2" r="2" fill="#97a4b5" data-name="Ellipse 171" transform="translate(66 423)"/><circle id="Ellipse_121" cx="2" cy="2" r="2" fill="#11c7e6" data-name="Ellipse 121" transform="translate(374 423)"/><circle id="Ellipse_134" cx="2" cy="2" r="2" fill="#11c7e6" data-name="Ellipse 134" transform="translate(423 423)"/><circle id="Ellipse_185" cx="2" cy="2" r="2" fill="#11c7e6" data-name="Ellipse 185" transform="translate(169 291) rotate(90)"/><circle id="Ellipse_172" cx="2" cy="2" r="2" fill="#11c7e6" data-name="Ellipse 172" transform="translate(86 423)"/><circle id="Ellipse_122" cx="2" cy="2" r="2" fill="#718095" data-name="Ellipse 122" transform="translate(354 438)"/><circle id="Ellipse_222" cx="2" cy="2" r="2" fill="#718095" data-name="Ellipse 222" transform="translate(154 222) rotate(90)"/><circle id="Ellipse_135" cx="2" cy="2" r="2" fill="#718095" data-name="Ellipse 135" transform="translate(403 438)"/><circle id="Ellipse_203" cx="2" cy="2" r="2" fill="#718095" data-name="Ellipse 203" transform="translate(154 271) rotate(90)"/><circle id="Ellipse_156" cx="2" cy="2" r="2" fill="#718095" data-name="Ellipse 156" transform="translate(66 438)"/><circle id="Ellipse_123" cx="2" cy="2" r="2" fill="#1b355d" data-name="Ellipse 123" transform="translate(373 438)"/><ellipse id="Ellipse_136" cx="2.5" cy="2" fill="#1b355d" data-name="Ellipse 136" rx="2.5" ry="2" transform="translate(421 438)"/><circle id="Ellipse_186" cx="2" cy="2" r="2" fill="#1b355d" data-name="Ellipse 186" transform="translate(154 290) rotate(90)"/><circle id="Ellipse_157" cx="2" cy="2" r="2" fill="#1b355d" data-name="Ellipse 157" transform="translate(85 438)"/><circle id="Ellipse_151" cx="2" cy="2" r="2" fill="#11c7e6" data-name="Ellipse 151" transform="translate(268 404)"/><circle id="Ellipse_152" cx="2" cy="2" r="2" fill="#1b365c" data-name="Ellipse 152" transform="translate(268 388)"/><circle id="Ellipse_153" cx="2" cy="2" r="2" fill="#11c7e6" data-name="Ellipse 153" transform="translate(251 421)"/><circle id="Ellipse_155" cx="2" cy="2" r="2" fill="#11c7e6" data-name="Ellipse 155" transform="translate(116 421)"/><circle id="Ellipse_154" cx="2" cy="2" r="2" fill="#1b365c" data-name="Ellipse 154" transform="translate(251 405)"/><circle id="Ellipse_179" cx="2.018" cy="2.018" r="2.018" fill="#1b355d" data-name="Ellipse 179" transform="translate(411.406 91.096) rotate(90)"/><circle id="Ellipse_550" cx="2.018" cy="2.018" r="2.018" fill="#1b355d" data-name="Ellipse 550" transform="translate(411.406 541.096) rotate(90)"/><circle id="Ellipse_180" cx="2.018" cy="2.018" r="2.018" fill="#1b355d" data-name="Ellipse 180" transform="translate(411.406 108.588) rotate(90)"/><circle id="Ellipse_530" cx="2.018" cy="2.018" r="2.018" fill="#1b355d" data-name="Ellipse 530" transform="translate(411.406 558.588) rotate(90)"/><circle id="Ellipse_181" cx="2.018" cy="2.018" r="2.018" fill="#1b355d" data-name="Ellipse 181" transform="translate(428.898 108.588) rotate(90)"/><circle id="Ellipse_531" cx="2.018" cy="2.018" r="2.018" fill="#1b355d" data-name="Ellipse 531" transform="translate(428.898 558.588) rotate(90)"/><circle id="Ellipse_184" cx="2.018" cy="2.018" r="2.018" fill="#1b355d" data-name="Ellipse 184" transform="translate(458.5 108.588) rotate(90)"/><circle id="Ellipse_532" cx="2.018" cy="2.018" r="2.018" fill="#1b355d" data-name="Ellipse 532" transform="translate(458.5 558.588) rotate(90)"/><circle id="Ellipse_182" cx="2.018" cy="2.018" r="2.018" fill="#718095" data-name="Ellipse 182" transform="translate(428.898 126.08) rotate(90)"/><circle id="Ellipse_502" cx="2.018" cy="2.018" r="2.018" fill="#718095" data-name="Ellipse 502" transform="translate(428.898 576.08) rotate(90)"/><circle id="Ellipse_183" cx="2.018" cy="2.018" r="2.018" fill="#bec7d2" data-name="Ellipse 183" transform="translate(411.406 126.08) rotate(90)"/><circle id="Ellipse_503" cx="2.018" cy="2.018" r="2.018" fill="#bec7d2" data-name="Ellipse 503" transform="translate(411.406 576.08) rotate(90)"/><circle id="Ellipse_236" cx="2" cy="2" r="2" fill="#1b365c" data-name="Ellipse 236" transform="translate(654 129) rotate(180)"/><circle id="Ellipse_520" cx="2" cy="2" r="2" fill="#1b365c" data-name="Ellipse 520" transform="translate(654 579) rotate(180)"/><circle id="Ellipse_237" cx="2" cy="2" r="2" fill="#1b365c" data-name="Ellipse 237" transform="translate(606 129) rotate(180)"/><circle id="Ellipse_521" cx="2" cy="2" r="2" fill="#1b365c" data-name="Ellipse 521" transform="translate(606 579) rotate(180)"/><circle id="Ellipse_238" cx="2" cy="2" r="2" fill="#1b365c" data-name="Ellipse 238" transform="translate(575 129) rotate(180)"/><circle id="Ellipse_522" cx="2" cy="2" r="2" fill="#1b365c" data-name="Ellipse 522" transform="translate(575 579) rotate(180)"/><circle id="Ellipse_239" cx="2" cy="2" r="2" fill="#1b365c" data-name="Ellipse 239" transform="translate(575 143) rotate(180)"/><circle id="Ellipse_504" cx="2" cy="2" r="2" fill="#1b365c" data-name="Ellipse 504" transform="translate(575 593) rotate(180)"/><circle id="Ellipse_240" cx="2" cy="2" r="2" fill="#1b365c" data-name="Ellipse 240" transform="translate(654 112) rotate(180)"/><circle id="Ellipse_533" cx="2" cy="2" r="2" fill="#1b365c" data-name="Ellipse 533" transform="translate(654 562) rotate(180)"/><circle id="Ellipse_241" cx="2" cy="2" r="2" fill="#1b365c" data-name="Ellipse 241" transform="translate(606 112) rotate(180)"/><circle id="Ellipse_534" cx="2" cy="2" r="2" fill="#1b365c" data-name="Ellipse 534" transform="translate(606 562) rotate(180)"/><circle id="Ellipse_242" cx="2" cy="2" r="2" fill="#1b365c" data-name="Ellipse 242" transform="translate(637 112) rotate(180)"/><circle id="Ellipse_535" cx="2" cy="2" r="2" fill="#1b365c" data-name="Ellipse 535" transform="translate(637 562) rotate(180)"/><circle id="Ellipse_243" cx="2" cy="2" r="2" fill="#1b365c" data-name="Ellipse 243" transform="translate(588 112) rotate(180)"/><circle id="Ellipse_536" cx="2" cy="2" r="2" fill="#1b365c" data-name="Ellipse 536" transform="translate(588 562) rotate(180)"/><circle id="Ellipse_244" cx="2" cy="2" r="2" fill="#1b365c" data-name="Ellipse 244" transform="translate(654 147) rotate(180)"/><circle id="Ellipse_505" cx="2" cy="2" r="2" fill="#1b365c" data-name="Ellipse 505" transform="translate(654 597) rotate(180)"/><circle id="Ellipse_245" cx="2" cy="2" r="2" fill="#11c7e6" data-name="Ellipse 245" transform="translate(654 164) rotate(180)"/><circle id="Ellipse_488" cx="2" cy="2" r="2" fill="#11c7e6" data-name="Ellipse 488" transform="translate(654 614) rotate(180)"/><circle id="Ellipse_246" cx="2" cy="2" r="2" fill="#1b365c" data-name="Ellipse 246" transform="translate(588 143) rotate(180)"/><circle id="Ellipse_506" cx="2" cy="2" r="2" fill="#1b365c" data-name="Ellipse 506" transform="translate(588 593) rotate(180)"/><circle id="Ellipse_247" cx="2" cy="2" r="2" fill="#1b365c" data-name="Ellipse 247" transform="translate(623 112) rotate(180)"/><circle id="Ellipse_537" cx="2" cy="2" r="2" fill="#1b365c" data-name="Ellipse 537" transform="translate(623 562) rotate(180)"/><circle id="Ellipse_248" cx="2" cy="2" r="2" fill="#1b365c" data-name="Ellipse 248" transform="translate(575 112) rotate(180)"/><circle id="Ellipse_538" cx="2" cy="2" r="2" fill="#1b365c" data-name="Ellipse 538" transform="translate(575 562) rotate(180)"/><circle id="Ellipse_249" cx="2" cy="2" r="2" fill="#1b365c" data-name="Ellipse 249" transform="translate(654 94) rotate(180)"/><circle id="Ellipse_551" cx="2" cy="2" r="2" fill="#1b365c" data-name="Ellipse 551" transform="translate(654 544) rotate(180)"/><circle id="Ellipse_250" cx="2" cy="2" r="2" fill="#1b365c" data-name="Ellipse 250" transform="translate(606 94) rotate(180)"/><circle id="Ellipse_552" cx="2" cy="2" r="2" fill="#1b365c" data-name="Ellipse 552" transform="translate(606 544) rotate(180)"/><circle id="Ellipse_251" cx="2" cy="2" r="2" fill="#1b365c" data-name="Ellipse 251" transform="translate(637 94) rotate(180)"/><circle id="Ellipse_553" cx="2" cy="2" r="2" fill="#1b365c" data-name="Ellipse 553" transform="translate(637 544) rotate(180)"/><circle id="Ellipse_252" cx="2" cy="2" r="2" fill="#1b365c" data-name="Ellipse 252" transform="translate(588 94) rotate(180)"/><circle id="Ellipse_554" cx="2" cy="2" r="2" fill="#1b365c" data-name="Ellipse 554" transform="translate(588 544) rotate(180)"/><circle id="Ellipse_253" cx="2" cy="2" r="2" fill="#97a4b5" data-name="Ellipse 253" transform="translate(654 77) rotate(180)"/><circle id="Ellipse_578" cx="2" cy="2" r="2" fill="#97a4b5" data-name="Ellipse 578" transform="translate(654 527) rotate(180)"/><circle id="Ellipse_254" cx="2" cy="2" r="2" fill="#97a4b5" data-name="Ellipse 254" transform="translate(606 77) rotate(180)"/><circle id="Ellipse_579" cx="2" cy="2" r="2" fill="#97a4b5" data-name="Ellipse 579" transform="translate(606 527) rotate(180)"/><circle id="Ellipse_255" cx="2" cy="2" r="2" fill="#11c7e6" data-name="Ellipse 255" transform="translate(634 77) rotate(180)"/><circle id="Ellipse_580" cx="2" cy="2" r="2" fill="#11c7e6" data-name="Ellipse 580" transform="translate(634 527) rotate(180)"/><circle id="Ellipse_256" cx="2" cy="2" r="2" fill="#11c7e6" data-name="Ellipse 256" transform="translate(586 77) rotate(180)"/><circle id="Ellipse_581" cx="2" cy="2" r="2" fill="#11c7e6" data-name="Ellipse 581" transform="translate(586 527) rotate(180)"/><circle id="Ellipse_257" cx="2" cy="2" r="2" fill="#718095" data-name="Ellipse 257" transform="translate(654 62) rotate(180)"/><circle id="Ellipse_589" cx="2" cy="2" r="2" fill="#718095" data-name="Ellipse 589" transform="translate(654 512) rotate(180)"/><circle id="Ellipse_258" cx="2" cy="2" r="2" fill="#718095" data-name="Ellipse 258" transform="translate(606 62) rotate(180)"/><circle id="Ellipse_590" cx="2" cy="2" r="2" fill="#718095" data-name="Ellipse 590" transform="translate(606 512) rotate(180)"/><circle id="Ellipse_259" cx="2" cy="2" r="2" fill="#1b355d" data-name="Ellipse 259" transform="translate(635 62) rotate(180)"/><circle id="Ellipse_591" cx="2" cy="2" r="2" fill="#1b355d" data-name="Ellipse 591" transform="translate(635 512) rotate(180)"/><circle id="Ellipse_260" cx="2" cy="2" r="2" fill="#1b355d" data-name="Ellipse 260" transform="translate(587 62) rotate(180)"/><circle id="Ellipse_592" cx="2" cy="2" r="2" fill="#1b355d" data-name="Ellipse 592" transform="translate(587 512) rotate(180)"/><circle id="Ellipse_287" cx="2" cy="2" r="2" fill="#1b365c" data-name="Ellipse 287" transform="translate(586 257) rotate(180)"/><circle id="Ellipse_288" cx="2" cy="2" r="2" fill="#1b365c" data-name="Ellipse 288" transform="translate(537 257) rotate(180)"/><circle id="Ellipse_289" cx="2" cy="2" r="2" fill="#1b365c" data-name="Ellipse 289" transform="translate(586 240) rotate(180)"/><circle id="Ellipse_290" cx="2" cy="2" r="2" fill="#1b365c" data-name="Ellipse 290" transform="translate(537 240) rotate(180)"/><circle id="Ellipse_291" cx="2" cy="2" r="2" fill="#1b365c" data-name="Ellipse 291" transform="translate(568 240) rotate(180)"/><circle id="Ellipse_292" cx="2" cy="2" r="2" fill="#1b365c" data-name="Ellipse 292" transform="translate(520 240) rotate(180)"/><circle id="Ellipse_293" cx="2" cy="2" r="2" fill="#1b365c" data-name="Ellipse 293" transform="translate(586 275) rotate(180)"/><circle id="Ellipse_294" cx="2" cy="2" r="2" fill="#11c7e6" data-name="Ellipse 294" transform="translate(586 292) rotate(180)"/><circle id="Ellipse_295" cx="2" cy="2" r="2" fill="#1b365c" data-name="Ellipse 295" transform="translate(520 271) rotate(180)"/><circle id="Ellipse_296" cx="2" cy="2" r="2" fill="#1b365c" data-name="Ellipse 296" transform="translate(555 240) rotate(180)"/><circle id="Ellipse_298" cx="2" cy="2" r="2" fill="#1b365c" data-name="Ellipse 298" transform="translate(537 222) rotate(180)"/><circle id="Ellipse_300" cx="2" cy="2" r="2" fill="#1b365c" data-name="Ellipse 300" transform="translate(520 222) rotate(180)"/><circle id="Ellipse_301" cx="2" cy="2" r="2" fill="#97a4b5" data-name="Ellipse 301" transform="translate(586 205) rotate(180)"/><circle id="Ellipse_476" cx="2" cy="2" r="2" fill="#97a4b5" data-name="Ellipse 476" transform="translate(586 655) rotate(180)"/><circle id="Ellipse_305" cx="2" cy="2" r="2" fill="#718095" data-name="Ellipse 305" transform="translate(586 190) rotate(180)"/><circle id="Ellipse_477" cx="2" cy="2" r="2" fill="#718095" data-name="Ellipse 477" transform="translate(586 640) rotate(180)"/><circle id="Ellipse_307" cx="2" cy="2" r="2" fill="#1b355d" data-name="Ellipse 307" transform="translate(567 190) rotate(180)"/><circle id="Ellipse_478" cx="2" cy="2" r="2" fill="#1b355d" data-name="Ellipse 478" transform="translate(567 640) rotate(180)"/><circle id="Ellipse_308" cx="2" cy="2" r="2" fill="#1b365c" data-name="Ellipse 308" transform="translate(115 370)"/><circle id="Ellipse_309" cx="2" cy="2" r="2" fill="#1b365c" data-name="Ellipse 309" transform="translate(146 370)"/><circle id="Ellipse_310" cx="2" cy="2" r="2" fill="#1b365c" data-name="Ellipse 310" transform="translate(146 357)"/><circle id="Ellipse_311" cx="2" cy="2" r="2" fill="#1b365c" data-name="Ellipse 311" transform="translate(115 388)"/><circle id="Ellipse_312" cx="2" cy="2" r="2" fill="#1b365c" data-name="Ellipse 312" transform="translate(132 388)"/><circle id="Ellipse_313" cx="2" cy="2" r="2" fill="#1b365c" data-name="Ellipse 313" transform="translate(132 357)"/><circle id="Ellipse_314" cx="2" cy="2" r="2" fill="#1b365c" data-name="Ellipse 314" transform="translate(146 388)"/><circle id="Ellipse_315" cx="2" cy="2" r="2" fill="#1b365c" data-name="Ellipse 315" transform="translate(115 405)"/><circle id="Ellipse_316" cx="2" cy="2" r="2" fill="#1b365c" data-name="Ellipse 316" transform="translate(132 405)"/><circle id="Ellipse_317" cx="2" cy="2" r="2" fill="#97a4b5" data-name="Ellipse 317" transform="translate(115 423)"/><circle id="Ellipse_318" cx="2" cy="2" r="2" fill="#11c7e6" data-name="Ellipse 318" transform="translate(135 423)"/><circle id="Ellipse_319" cx="2" cy="2" r="2" fill="#718095" data-name="Ellipse 319" transform="translate(115 438)"/><circle id="Ellipse_320" cx="2" cy="2" r="2" fill="#1b355d" data-name="Ellipse 320" transform="translate(134 438)"/><circle id="Ellipse_321" cx="2" cy="2" r="2" fill="#1b365c" data-name="Ellipse 321" transform="translate(451 370)"/><circle id="Ellipse_322" cx="2" cy="2" r="2" fill="#1b365c" data-name="Ellipse 322" transform="translate(482 370)"/><circle id="Ellipse_323" cx="2" cy="2" r="2" fill="#1b365c" data-name="Ellipse 323" transform="translate(482 357)"/><circle id="Ellipse_324" cx="2" cy="2" r="2" fill="#1b365c" data-name="Ellipse 324" transform="translate(451 388)"/><circle id="Ellipse_325" cx="2" cy="2" r="2" fill="#1b365c" data-name="Ellipse 325" transform="translate(469 388)"/><circle id="Ellipse_326" cx="2" cy="2" r="2" fill="#1b365c" data-name="Ellipse 326" transform="translate(469 357)"/><circle id="Ellipse_327" cx="2" cy="2" r="2" fill="#1b365c" data-name="Ellipse 327" transform="translate(482 388)"/><circle id="Ellipse_328" cx="2" cy="2" r="2" fill="#1b365c" data-name="Ellipse 328" transform="translate(451 405)"/><circle id="Ellipse_329" cx="2" cy="2" r="2" fill="#1b365c" data-name="Ellipse 329" transform="translate(469 405)"/><circle id="Ellipse_330" cx="2" cy="2" r="2" fill="#97a4b5" data-name="Ellipse 330" transform="translate(451 423)"/><circle id="Ellipse_331" cx="2" cy="2" r="2" fill="#11c7e6" data-name="Ellipse 331" transform="translate(471 423)"/><circle id="Ellipse_332" cx="2" cy="2" r="2" fill="#718095" data-name="Ellipse 332" transform="translate(451 438)"/><circle id="Ellipse_333" cx="2" cy="2" r="2" fill="#1b355d" data-name="Ellipse 333" transform="translate(470 438)"/><circle id="Ellipse_334" cx="2" cy="2" r="2" fill="#1b365c" data-name="Ellipse 334" transform="translate(553 405) rotate(90)"/><circle id="Ellipse_335" cx="2" cy="2" r="2" fill="#1b365c" data-name="Ellipse 335" transform="translate(553 434) rotate(90)"/><circle id="Ellipse_336" cx="2" cy="2" r="2" fill="#1b365c" data-name="Ellipse 336" transform="translate(567 434) rotate(90)"/><circle id="Ellipse_337" cx="2" cy="2" r="2" fill="#1b365c" data-name="Ellipse 337" transform="translate(536 405) rotate(90)"/><circle id="Ellipse_338" cx="2" cy="2" r="2" fill="#1b365c" data-name="Ellipse 338" transform="translate(536 420) rotate(90)"/><circle id="Ellipse_339" cx="2" cy="2" r="2" fill="#1b365c" data-name="Ellipse 339" transform="translate(567 420) rotate(90)"/><circle id="Ellipse_340" cx="2" cy="2" r="2" fill="#1b365c" data-name="Ellipse 340" transform="translate(536 434) rotate(90)"/><circle id="Ellipse_341" cx="2" cy="2" r="2" fill="#1b365c" data-name="Ellipse 341" transform="translate(518 405) rotate(90)"/><circle id="Ellipse_342" cx="2" cy="2" r="2" fill="#1b365c" data-name="Ellipse 342" transform="translate(518 420) rotate(90)"/><circle id="Ellipse_343" cx="2" cy="2" r="2" fill="#97a4b5" data-name="Ellipse 343" transform="translate(501 405) rotate(90)"/><circle id="Ellipse_344" cx="2" cy="2" r="2" fill="#11c7e6" data-name="Ellipse 344" transform="translate(501 423) rotate(90)"/><circle id="Ellipse_345" cx="2" cy="2" r="2" fill="#718095" data-name="Ellipse 345" transform="translate(486 405) rotate(90)"/><circle id="Ellipse_346" cx="2" cy="2" r="2" fill="#1b355d" data-name="Ellipse 346" transform="translate(486 421) rotate(90)"/><ellipse id="Ellipse_347" cx="2.5" cy="2" fill="#1b365c" data-name="Ellipse 347" rx="2.5" ry="2" transform="translate(376 133) rotate(90)"/><ellipse id="Ellipse_507" cx="2.5" cy="2" fill="#1b365c" data-name="Ellipse 507" rx="2.5" ry="2" transform="translate(376 583) rotate(90)"/><circle id="Ellipse_348" cx="2" cy="2" r="2" fill="#1b365c" data-name="Ellipse 348" transform="translate(376 164) rotate(90)"/><circle id="Ellipse_494" cx="2" cy="2" r="2" fill="#1b365c" data-name="Ellipse 494" transform="translate(376 614) rotate(90)"/><circle id="Ellipse_349" cx="2" cy="2" r="2" fill="#1b365c" data-name="Ellipse 349" transform="translate(389 164) rotate(90)"/><circle id="Ellipse_495" cx="2" cy="2" r="2" fill="#1b365c" data-name="Ellipse 495" transform="translate(389 614) rotate(90)"/><ellipse id="Ellipse_350" cx="2.5" cy="2" fill="#1b365c" data-name="Ellipse 350" rx="2.5" ry="2" transform="translate(358 133) rotate(90)"/><ellipse id="Ellipse_508" cx="2.5" cy="2" fill="#1b365c" data-name="Ellipse 508" rx="2.5" ry="2" transform="translate(358 583) rotate(90)"/><circle id="Ellipse_351" cx="2" cy="2" r="2" fill="#1b365c" data-name="Ellipse 351" transform="translate(358 151) rotate(90)"/><circle id="Ellipse_509" cx="2" cy="2" r="2" fill="#1b365c" data-name="Ellipse 509" transform="translate(358 601) rotate(90)"/><circle id="Ellipse_352" cx="2" cy="2" r="2" fill="#1b365c" data-name="Ellipse 352" transform="translate(389 151) rotate(90)"/><circle id="Ellipse_510" cx="2" cy="2" r="2" fill="#1b365c" data-name="Ellipse 510" transform="translate(389 601) rotate(90)"/><circle id="Ellipse_353" cx="2" cy="2" r="2" fill="#1b365c" data-name="Ellipse 353" transform="translate(358 164) rotate(90)"/><circle id="Ellipse_496" cx="2" cy="2" r="2" fill="#1b365c" data-name="Ellipse 496" transform="translate(358 614) rotate(90)"/><ellipse id="Ellipse_354" cx="2.5" cy="2" fill="#1b365c" data-name="Ellipse 354" rx="2.5" ry="2" transform="translate(341 133) rotate(90)"/><ellipse id="Ellipse_511" cx="2.5" cy="2" fill="#1b365c" data-name="Ellipse 511" rx="2.5" ry="2" transform="translate(341 583) rotate(90)"/><circle id="Ellipse_355" cx="2" cy="2" r="2" fill="#1b365c" data-name="Ellipse 355" transform="translate(341 151) rotate(90)"/><circle id="Ellipse_512" cx="2" cy="2" r="2" fill="#1b365c" data-name="Ellipse 512" transform="translate(341 601) rotate(90)"/><ellipse id="Ellipse_356" cx="2.5" cy="2" fill="#97a4b5" data-name="Ellipse 356" rx="2.5" ry="2" transform="translate(323 133) rotate(90)"/><ellipse id="Ellipse_513" cx="2.5" cy="2" fill="#97a4b5" data-name="Ellipse 513" rx="2.5" ry="2" transform="translate(323 583) rotate(90)"/><circle id="Ellipse_357" cx="2" cy="2" r="2" fill="#11c7e6" data-name="Ellipse 357" transform="translate(323 154) rotate(90)"/><circle id="Ellipse_514" cx="2" cy="2" r="2" fill="#11c7e6" data-name="Ellipse 514" transform="translate(323 604) rotate(90)"/><ellipse id="Ellipse_358" cx="2.5" cy="2" fill="#718095" data-name="Ellipse 358" rx="2.5" ry="2" transform="translate(308 133) rotate(90)"/><ellipse id="Ellipse_515" cx="2.5" cy="2" fill="#718095" data-name="Ellipse 515" rx="2.5" ry="2" transform="translate(308 583) rotate(90)"/><circle id="Ellipse_359" cx="2" cy="2" r="2" fill="#1b355d" data-name="Ellipse 359" transform="translate(308 152) rotate(90)"/><circle id="Ellipse_516" cx="2" cy="2" r="2" fill="#1b355d" data-name="Ellipse 516" transform="translate(308 602) rotate(90)"/><circle id="Ellipse_360" cx="2" cy="2" r="2" fill="#1b365c" data-name="Ellipse 360" transform="translate(455 94) rotate(-90)"/><circle id="Ellipse_555" cx="2" cy="2" r="2" fill="#1b365c" data-name="Ellipse 555" transform="translate(455 544) rotate(-90)"/><circle id="Ellipse_361" cx="2" cy="2" r="2" fill="#1b365c" data-name="Ellipse 361" transform="translate(455 66) rotate(-90)"/><circle id="Ellipse_593" cx="2" cy="2" r="2" fill="#1b365c" data-name="Ellipse 593" transform="translate(455 516) rotate(-90)"/><circle id="Ellipse_362" cx="2" cy="2" r="2" fill="#1b365c" data-name="Ellipse 362" transform="translate(442 66) rotate(-90)"/><circle id="Ellipse_594" cx="2" cy="2" r="2" fill="#1b365c" data-name="Ellipse 594" transform="translate(442 516) rotate(-90)"/><circle id="Ellipse_363" cx="2" cy="2" r="2" fill="#1b365c" data-name="Ellipse 363" transform="translate(473 94) rotate(-90)"/><circle id="Ellipse_556" cx="2" cy="2" r="2" fill="#1b365c" data-name="Ellipse 556" transform="translate(473 544) rotate(-90)"/><circle id="Ellipse_364" cx="2" cy="2" r="2" fill="#1b365c" data-name="Ellipse 364" transform="translate(473 80) rotate(-90)"/><circle id="Ellipse_582" cx="2" cy="2" r="2" fill="#1b365c" data-name="Ellipse 582" transform="translate(473 530) rotate(-90)"/><circle id="Ellipse_365" cx="2" cy="2" r="2" fill="#1b365c" data-name="Ellipse 365" transform="translate(442 80) rotate(-90)"/><circle id="Ellipse_583" cx="2" cy="2" r="2" fill="#1b365c" data-name="Ellipse 583" transform="translate(442 530) rotate(-90)"/><circle id="Ellipse_366" cx="2" cy="2" r="2" fill="#1b365c" data-name="Ellipse 366" transform="translate(473 66) rotate(-90)"/><circle id="Ellipse_595" cx="2" cy="2" r="2" fill="#1b365c" data-name="Ellipse 595" transform="translate(473 516) rotate(-90)"/><circle id="Ellipse_367" cx="2" cy="2" r="2" fill="#1b365c" data-name="Ellipse 367" transform="translate(490 94) rotate(-90)"/><circle id="Ellipse_557" cx="2" cy="2" r="2" fill="#1b365c" data-name="Ellipse 557" transform="translate(490 544) rotate(-90)"/><circle id="Ellipse_368" cx="2" cy="2" r="2" fill="#1b365c" data-name="Ellipse 368" transform="translate(490 80) rotate(-90)"/><circle id="Ellipse_584" cx="2" cy="2" r="2" fill="#1b365c" data-name="Ellipse 584" transform="translate(490 530) rotate(-90)"/><circle id="Ellipse_369" cx="2" cy="2" r="2" fill="#97a4b5" data-name="Ellipse 369" transform="translate(508 94) rotate(-90)"/><circle id="Ellipse_558" cx="2" cy="2" r="2" fill="#97a4b5" data-name="Ellipse 558" transform="translate(508 544) rotate(-90)"/><circle id="Ellipse_370" cx="2" cy="2" r="2" fill="#11c7e6" data-name="Ellipse 370" transform="translate(508 77) rotate(-90)"/><circle id="Ellipse_585" cx="2" cy="2" r="2" fill="#11c7e6" data-name="Ellipse 585" transform="translate(508 527) rotate(-90)"/><circle id="Ellipse_371" cx="2" cy="2" r="2" fill="#718095" data-name="Ellipse 371" transform="translate(522 94) rotate(-90)"/><circle id="Ellipse_559" cx="2" cy="2" r="2" fill="#718095" data-name="Ellipse 559" transform="translate(522 544) rotate(-90)"/><circle id="Ellipse_372" cx="2" cy="2" r="2" fill="#1b355d" data-name="Ellipse 372" transform="translate(522 78) rotate(-90)"/><circle id="Ellipse_586" cx="2" cy="2" r="2" fill="#1b355d" data-name="Ellipse 586" transform="translate(522 528) rotate(-90)"/><circle id="Ellipse_373" cx="2" cy="2" r="2" fill="#1b365c" data-name="Ellipse 373" transform="translate(557 129) rotate(180)"/><circle id="Ellipse_523" cx="2" cy="2" r="2" fill="#1b365c" data-name="Ellipse 523" transform="translate(557 579) rotate(180)"/><circle id="Ellipse_374" cx="2" cy="2" r="2" fill="#1b365c" data-name="Ellipse 374" transform="translate(526 129) rotate(180)"/><circle id="Ellipse_524" cx="2" cy="2" r="2" fill="#1b365c" data-name="Ellipse 524" transform="translate(526 579) rotate(180)"/><circle id="Ellipse_375" cx="2" cy="2" r="2" fill="#1b365c" data-name="Ellipse 375" transform="translate(526 143) rotate(180)"/><circle id="Ellipse_517" cx="2" cy="2" r="2" fill="#1b365c" data-name="Ellipse 517" transform="translate(526 593) rotate(180)"/><circle id="Ellipse_376" cx="2" cy="2" r="2" fill="#1b365c" data-name="Ellipse 376" transform="translate(557 112) rotate(180)"/><circle id="Ellipse_539" cx="2" cy="2" r="2" fill="#1b365c" data-name="Ellipse 539" transform="translate(557 562) rotate(180)"/><circle id="Ellipse_377" cx="2" cy="2" r="2" fill="#1b365c" data-name="Ellipse 377" transform="translate(540 112) rotate(180)"/><circle id="Ellipse_540" cx="2" cy="2" r="2" fill="#1b365c" data-name="Ellipse 540" transform="translate(540 562) rotate(180)"/><circle id="Ellipse_378" cx="2" cy="2" r="2" fill="#1b365c" data-name="Ellipse 378" transform="translate(540 143) rotate(180)"/><circle id="Ellipse_518" cx="2" cy="2" r="2" fill="#1b365c" data-name="Ellipse 518" transform="translate(540 593) rotate(180)"/><circle id="Ellipse_379" cx="2" cy="2" r="2" fill="#1b365c" data-name="Ellipse 379" transform="translate(526 112) rotate(180)"/><circle id="Ellipse_541" cx="2" cy="2" r="2" fill="#1b365c" data-name="Ellipse 541" transform="translate(526 562) rotate(180)"/><circle id="Ellipse_380" cx="2" cy="2" r="2" fill="#1b365c" data-name="Ellipse 380" transform="translate(557 94) rotate(180)"/><circle id="Ellipse_560" cx="2" cy="2" r="2" fill="#1b365c" data-name="Ellipse 560" transform="translate(557 544) rotate(180)"/><circle id="Ellipse_381" cx="2" cy="2" r="2" fill="#1b365c" data-name="Ellipse 381" transform="translate(540 94) rotate(180)"/><circle id="Ellipse_561" cx="2" cy="2" r="2" fill="#1b365c" data-name="Ellipse 561" transform="translate(540 544) rotate(180)"/><circle id="Ellipse_382" cx="2" cy="2" r="2" fill="#97a4b5" data-name="Ellipse 382" transform="translate(557 77) rotate(180)"/><circle id="Ellipse_587" cx="2" cy="2" r="2" fill="#97a4b5" data-name="Ellipse 587" transform="translate(557 527) rotate(180)"/><circle id="Ellipse_383" cx="2" cy="2" r="2" fill="#11c7e6" data-name="Ellipse 383" transform="translate(537 77) rotate(180)"/><circle id="Ellipse_588" cx="2" cy="2" r="2" fill="#11c7e6" data-name="Ellipse 588" transform="translate(537 527) rotate(180)"/><circle id="Ellipse_384" cx="2" cy="2" r="2" fill="#718095" data-name="Ellipse 384" transform="translate(557 62) rotate(180)"/><circle id="Ellipse_596" cx="2" cy="2" r="2" fill="#718095" data-name="Ellipse 596" transform="translate(557 512) rotate(180)"/><circle id="Ellipse_385" cx="2" cy="2" r="2" fill="#1b355d" data-name="Ellipse 385" transform="translate(539 62) rotate(180)"/><circle id="Ellipse_597" cx="2" cy="2" r="2" fill="#1b355d" data-name="Ellipse 597" transform="translate(539 512) rotate(180)"/><circle id="Ellipse_471" cx="2" cy="2" r="2" fill="#1b365c" data-name="Ellipse 471" transform="translate(537 672) rotate(180)"/><circle id="Ellipse_569" cx="2" cy="2" r="2" fill="#1b365c" data-name="Ellipse 569" transform="translate(46 676)"/></g></svg>